<svg width="1440" height="800" viewBox="0 0 1440 800" fill="none" xmlns="http://www.w3.org/2000/svg">
<path d="M720 514.247V1120.13" stroke="#FF6C15" stroke-opacity="0.24" stroke-linecap="round" stroke-linejoin="round"/>
<path d="M662.642 514.247L359.576 1120.13" stroke="#FF6C15" stroke-opacity="0.24" stroke-linecap="round" stroke-linejoin="round"/>
<path d="M776.555 514.247L1078.6 1120.13" stroke="#FF6C15" stroke-opacity="0.24" stroke-linecap="round" stroke-linejoin="round"/>
<path d="M491.619 514.247L0 760.045" stroke="#FF6C15" stroke-opacity="0.24" stroke-linecap="round" stroke-linejoin="round"/>
<path d="M548.731 514.247L0 880.335" stroke="#FF6C15" stroke-opacity="0.24" stroke-linecap="round" stroke-linejoin="round"/>
<path d="M605.687 514.247L0.0449219 1120.16" stroke="#FF6C15" stroke-opacity="0.24" stroke-linecap="round" stroke-linejoin="round"/>
<path d="M0 580.569L491.619 457.402" stroke="#FF6C15" stroke-opacity="0.24" stroke-linecap="round" stroke-linejoin="round"/>
<path d="M948.069 514.247L1440 760.022" stroke="#FF6C15" stroke-opacity="0.24" stroke-linecap="round" stroke-linejoin="round"/>
<path d="M890.467 514.247L1440 881.293" stroke="#FF6C15" stroke-opacity="0.24" stroke-linecap="round" stroke-linejoin="round"/>
<path d="M1440 580.702L948.069 457.358" stroke="#FF6C15" stroke-opacity="0.24" stroke-linecap="round" stroke-linejoin="round"/>
<path d="M833.511 514.247L1438.08 1120.13" stroke="#FF6C15" stroke-opacity="0.24" stroke-linecap="round" stroke-linejoin="round"/>
<path d="M0 400.647L491.619 400.335" stroke="#FF6C15" stroke-opacity="0.24" stroke-linecap="round" stroke-linejoin="round"/>
<path d="M0 220.725L491.619 343.267" stroke="#FF6C15" stroke-opacity="0.24" stroke-linecap="round" stroke-linejoin="round"/>
<path d="M491.619 285.865L0 40.0891" stroke="#FF6C15" stroke-opacity="0.24" stroke-linecap="round" stroke-linejoin="round"/>
<path d="M548.218 285.865L0 -78.9293" stroke="#FF6C15" stroke-opacity="0.24" stroke-linecap="round" stroke-linejoin="round"/>
<path d="M777.134 285.865L1079.91 -320" stroke="#FF6C15" stroke-opacity="0.24" stroke-linecap="round" stroke-linejoin="round"/>
<path d="M605.464 285.865L0 -318.26" stroke="#FF6C15" stroke-opacity="0.24" stroke-linecap="round" stroke-linejoin="round"/>
<path d="M662.687 285.865L358.818 -320" stroke="#FF6C15" stroke-opacity="0.24" stroke-linecap="round" stroke-linejoin="round"/>
<path d="M720 -320V285.865" stroke="#FF6C15" stroke-opacity="0.24" stroke-linecap="round" stroke-linejoin="round"/>
<path d="M891.583 285.865L1440 -79.4869" stroke="#FF6C15" stroke-opacity="0.24" stroke-linecap="round" stroke-linejoin="round"/>
<path d="M834.358 285.865L1440 -319.554" stroke="#FF6C15" stroke-opacity="0.24" stroke-linecap="round" stroke-linejoin="round"/>
<path d="M948.069 286.044L1440 40.0891" stroke="#FF6C15" stroke-opacity="0.24" stroke-linecap="round" stroke-linejoin="round"/>
<path d="M1440 220.546L948.069 343.289" stroke="#FF6C15" stroke-opacity="0.24" stroke-linecap="round" stroke-linejoin="round"/>
<path d="M1440 400.624L948.069 400.312" stroke="#FF6C15" stroke-opacity="0.24" stroke-linecap="round" stroke-linejoin="round"/>
<path d="M1365.4 77.3758H74.6182V722.736H1365.4V77.3758Z" stroke="#FF6C15" stroke-opacity="0.24" stroke-linecap="round" stroke-linejoin="round"/>
<path d="M1303.7 108.195H136.257V691.916H1303.7V108.195Z" stroke="#FF6C15" stroke-opacity="0.24" stroke-linecap="round" stroke-linejoin="round"/>
<path d="M1171.77 174.116H268.1V625.995H1171.77V174.116Z" stroke="#FF6C15" stroke-opacity="0.24" stroke-linecap="round" stroke-linejoin="round"/>
<path d="M1140.1 189.95H299.743V610.184H1140.1V189.95Z" stroke="#FF6C15" stroke-opacity="0.24" stroke-linecap="round" stroke-linejoin="round"/>
<path d="M1112.58 203.687H327.24V596.424H1112.58V203.687Z" stroke="#FF6C15" stroke-opacity="0.24" stroke-linecap="round" stroke-linejoin="round"/>
<path d="M1088.45 215.752H351.37V584.382H1088.45V215.752Z" stroke="#FF6C15" stroke-opacity="0.24" stroke-linecap="round" stroke-linejoin="round"/>
<path d="M1067.09 226.411H372.688V573.722H1067.09V226.411Z" stroke="#FF6C15" stroke-opacity="0.24" stroke-linecap="round" stroke-linejoin="round"/>
<path d="M1048.09 235.912H391.69V564.222H1048.09V235.912Z" stroke="#FF6C15" stroke-opacity="0.24" stroke-linecap="round" stroke-linejoin="round"/>
<path d="M1031.05 244.431H408.727V555.703H1031.05V244.431Z" stroke="#FF6C15" stroke-opacity="0.24" stroke-linecap="round" stroke-linejoin="round"/>
<path d="M1015.68 252.102H424.069V548.032H1015.68V252.102Z" stroke="#FF6C15" stroke-opacity="0.24" stroke-linecap="round" stroke-linejoin="round"/>
<path d="M1001.77 259.059H437.964V541.074H1001.77V259.059Z" stroke="#FF6C15" stroke-opacity="0.24" stroke-linecap="round" stroke-linejoin="round"/>
<path d="M1440 38.4165H0" stroke="#FF6C15" stroke-opacity="0.24" stroke-linecap="round" stroke-linejoin="round"/>
<path d="M948.069 285.865H491.618V514.247H948.069V285.865Z" stroke="#FF6C15" stroke-opacity="0.24" stroke-linecap="round" stroke-linejoin="round"/>
<path d="M957.101 281.36H482.587V518.751H957.101V281.36Z" stroke="#FF6C15" stroke-opacity="0.24" stroke-linecap="round" stroke-linejoin="round"/>
<path d="M966.914 276.476H472.819V523.657H966.914V276.476Z" stroke="#FF6C15" stroke-opacity="0.24" stroke-linecap="round" stroke-linejoin="round"/>
<path d="M977.529 271.169H462.205V528.965H977.529V271.169Z" stroke="#FF6C15" stroke-opacity="0.24" stroke-linecap="round" stroke-linejoin="round"/>
<path d="M989.102 265.393H450.63V534.763H989.102V265.393Z" stroke="#FF6C15" stroke-opacity="0.24" stroke-linecap="round" stroke-linejoin="round"/>
<path d="M1440 762.788H0" stroke="#FF6C15" stroke-opacity="0.24" stroke-linecap="round" stroke-linejoin="round"/>
</svg>
