<?xml version="1.0" encoding="UTF-8" standalone="no"?>
<svg
   width="27"
   height="27"
   viewBox="0 0 27 27"
   fill="none"
   version="1.1"
   id="svg4"
   sodipodi:docname="hemi-logo.svg"
   inkscape:version="1.2.2 (b0a8486541, 2022-12-01)"
   xmlns:inkscape="http://www.inkscape.org/namespaces/inkscape"
   xmlns:sodipodi="http://sodipodi.sourceforge.net/DTD/sodipodi-0.dtd"
   xmlns="http://www.w3.org/2000/svg"
   xmlns:svg="http://www.w3.org/2000/svg">
  <defs
     id="defs8" />
  <sodipodi:namedview
     id="namedview6"
     pagecolor="#ffffff"
     bordercolor="#666666"
     borderopacity="1.0"
     inkscape:showpageshadow="2"
     inkscape:pageopacity="0.0"
     inkscape:pagecheckerboard="0"
     inkscape:deskcolor="#d1d1d1"
     showgrid="false"
     inkscape:zoom="9.1696429"
     inkscape:cx="8.1246349"
     inkscape:cy="12.541383"
     inkscape:window-width="1080"
     inkscape:window-height="1883"
     inkscape:window-x="0"
     inkscape:window-y="488"
     inkscape:window-maximized="1"
     inkscape:current-layer="svg4" />
  <path
     d="m 16.083795,0.06407913 c -0.1383,-0.024858 -0.2685,0.066289 -0.2929,0.207153 l -1.6683,9.63677797 h -1.2452 l -1.6683,-9.63677797 c -0.0244,-0.140864 -0.1546,-0.232011 -0.2929,-0.207153 C 4.9916547,1.2324201 0.45061974,6.3698001 0.07626934,12.65071 c 0,0.0082 -0.0162746,0.2734 -0.0162746,0.406 0,0.0166 0,0.0331 0,0.0414 0,0.0497 0,0.0994 0,0.1492 0,0.0165 0,0.0331 0,0.058 0,0.0663 0,0.1243 0,0.1905 0,6.6621 4.67123996,12.2055 10.86430026,13.4318 0.1383,0.0249 0.2686,-0.0663 0.293,-0.2071 l 1.6683,-9.6368 h 1.2451 l 1.6602,9.6451 c 0.0244,0.1408 0.1546,0.232 0.2929,0.2071 5.9245,-1.1766 10.4574,-6.314 10.8399,-12.5949 0,-0.0083 0.0163,-0.2734 0.0163,-0.406 0,-0.0166 0,-0.0331 0,-0.0414 0,-0.0497 0,-0.0995 0,-0.1492 0,-0.0165 0,-0.0331 0,-0.058 0,-0.0663 0,-0.1243 0,-0.1906 0.0081,-6.6619799 -4.6631,-12.2053899 -10.8562,-13.43173087 z"
     fill="#ff6c15"
     id="path2" />
</svg>
